<?xml version="1.0" encoding="utf-8"?>
<!-- Generator: Adobe Illustrator 27.6.1, SVG Export Plug-In . SVG Version: 6.00 Build 0)  -->
<svg version="1.1" id="Слой_1" xmlns="http://www.w3.org/2000/svg" xmlns:xlink="http://www.w3.org/1999/xlink" x="0px" y="0px"
	 viewBox="0 0 52 52" style="enable-background:new 0 0 52 52;" xml:space="preserve">
<path d="M50.96,25.93v-6.01c0-4.66-3.78-8.44-8.44-8.44l-33.08,0C4.78,11.48,1,15.26,1,19.92l0,6.01h0.03l0,12.07l4.16,0l0-10.41
	c0-0.92,0.75-1.67,1.67-1.67h0c0.72,0,1.37,0.47,1.59,1.16L12.02,38h4.54l3.47-10.95c0.21-0.67,0.83-1.13,1.53-1.13
	c0.89,0,1.6,0.72,1.6,1.6V38h4.2l0-12.07l2.5,0l0,4.22c0,4.43,3.59,8.01,8.01,8.01h4.36c2.72,0,4.87-0.71,6.43-2.14
	C50.22,34.6,51,32.72,51,30.37C51,28.55,50.96,25.93,50.96,25.93z M15.75,27.96l-0.47,1.5l-1.01,4.01l-1.01-4.01l-0.48-1.49
	c-0.33-1.01,0.43-2.05,1.49-2.05C15.32,25.93,16.07,26.96,15.75,27.96z M35.5,18.32c0-0.7,0.56-1.26,1.26-1.26h7.38
	c0.7,0,1.26,0.56,1.26,1.26v0.27c0,0.7-0.56,1.26-1.26,1.26h-7.38c-0.7,0-1.26-0.56-1.26-1.26V18.32z M45.25,33.22
	c-0.84,0.72-2.04,1.09-3.62,1.09h-3.09c-2.29,0-4.14-1.86-4.14-4.14c0-2.29,1.86-4.14,4.14-4.14h3.21c3.17,0,4.76,1.36,4.76,4.09
	C46.5,31.45,46.08,32.49,45.25,33.22z"/>
</svg>
